<?xml version="1.0" encoding="iso-8859-1"?>
<!-- Generator: Adobe Illustrator 16.0.0, SVG Export Plug-In . SVG Version: 6.00 Build 0)  -->
<!DOCTYPE svg PUBLIC "-//W3C//DTD SVG 1.1//EN" "http://www.w3.org/Graphics/SVG/1.1/DTD/svg11.dtd">
<svg version="1.1" id="Capa_1" xmlns="http://www.w3.org/2000/svg" xmlns:xlink="http://www.w3.org/1999/xlink" x="0px" y="0px"
	 width="50.465px" height="50.465px" viewBox="0 0 50.465 50.465" style="enable-background:new 0 0 50.465 50.465;"
	 xml:space="preserve">
<g>
	<g>
		<path d="M33.021,0H17.442c-5.51,0-9.994,4.484-9.994,9.996c0,1.104,0.896,2,2,2s2-0.896,2-2C11.448,6.69,14.137,4,17.442,4h15.578
			c3.308,0,5.996,2.689,5.996,5.996c0,1.104,0.896,2,2,2c1.104,0,2-0.896,2-2C43.017,4.484,38.532,0,33.021,0z"/>
		<path d="M31.94,5.506H18.522c-3.272,0-5.936,2.663-5.936,5.937v3.409c0,3.272,2.662,5.936,5.936,5.936H31.94
			c3.273,0,5.938-2.663,5.938-5.936v-3.409C37.876,8.168,35.214,5.506,31.94,5.506z M33.876,14.851c0,1.066-0.867,1.936-1.937,1.936
			h-13.42c-1.065,0-1.936-0.868-1.936-1.936v-3.409c0-1.067,0.866-1.937,1.936-1.937h0.072l-0.933,0.932
			c-0.586,0.585-0.586,1.535,0,2.12c0.293,0.294,0.679,0.439,1.063,0.439c0.383,0,0.768-0.146,1.062-0.439l3.051-3.052h0.934
			l-3.102,3.134c-0.584,0.59-0.578,1.539,0.012,2.122c0.291,0.289,0.674,0.435,1.055,0.435c0.385,0,0.773-0.148,1.066-0.445
			l5.188-5.245h0.802l-0.112,0.115c-0.58,0.591-0.572,1.541,0.018,2.122c0.293,0.287,0.672,0.43,1.053,0.43
			c0.391,0,0.775-0.149,1.07-0.448l1.979-2.012c0.637,0.317,1.079,0.969,1.079,1.729L33.876,14.851L33.876,14.851z"/>
		<path d="M19.601,30.717v1.484c0,1.496,1.217,2.713,2.711,2.713h5.84c1.496,0,2.711-1.217,2.711-2.713v-1.484
			c0-1.496-1.217-2.711-2.711-2.711h-5.84C20.815,28.004,19.601,29.221,19.601,30.717z M28.862,30.717v1.484
			c0,0.393-0.318,0.713-0.711,0.713h-5.84c-0.393,0-0.711-0.32-0.711-0.713v-1.484c0-0.393,0.32-0.711,0.711-0.711h5.84
			C28.542,30.004,28.862,30.325,28.862,30.717z"/>
		<path d="M35.653,21.903c-0.6-0.403-1.373-0.451-2.018-0.125c-1.386,0.7-4.318,1.447-8.404,1.447c-4.086,0-7.02-0.748-8.404-1.447
			c-0.645-0.327-1.416-0.279-2.018,0.125c-0.602,0.403-0.938,1.101-0.877,1.822l1.496,18.359c0.049,2.961,2.473,5.355,5.445,5.355
			h1.131c-0.183,0.301-0.293,0.647-0.293,1.025c0,1.104,0.896,2,2,2h3.04c1.104,0,2-0.896,2-2c0-0.378-0.111-0.726-0.294-1.025h1.13
			c2.973,0,5.396-2.396,5.443-5.355l1.499-18.358C36.591,23.004,36.255,22.307,35.653,21.903z M31.042,41.831
			c-0.004,0.056-0.008,0.109-0.008,0.164c0,0.797-0.648,1.445-1.445,1.445h-8.715c-0.797,0-1.445-0.648-1.445-1.445
			c0-0.055-0.002-0.108-0.008-0.164l-1.254-15.373c2.037,0.496,4.471,0.767,7.063,0.767c2.592,0,5.026-0.271,7.063-0.767
			L31.042,41.831z"/>
		<path d="M28.21,38.612h-5.958c-1.104,0-2,0.896-2,2s0.896,2,2,2h5.958c1.104,0,2-0.896,2-2S29.315,38.612,28.21,38.612z"/>
		<circle cx="23.097" cy="31.417" r="1.039"/>
		<circle cx="27.366" cy="31.417" r="1.039"/>
	</g>
</g>
<g>
</g>
<g>
</g>
<g>
</g>
<g>
</g>
<g>
</g>
<g>
</g>
<g>
</g>
<g>
</g>
<g>
</g>
<g>
</g>
<g>
</g>
<g>
</g>
<g>
</g>
<g>
</g>
<g>
</g>
</svg>
